<mxfile host="app.diagrams.net" modified="2024-02-28T15:45:45.081Z" agent="Mozilla/5.0 (Macintosh; Intel Mac OS X 10_15_7) AppleWebKit/537.36 (KHTML, like Gecko) Chrome/120.0.0.0 Safari/537.36" version="23.1.7" etag="tiuW0lEpb2ZKcrAN5frQ" type="github">
  <diagram name="第 1 页" id="cZ2zArQLjRabuybTiIeA">
    <mxGraphModel>
      <root>
        <mxCell id="0" />
        <mxCell id="1" parent="0" />
      </root>
    </mxGraphModel>
  </diagram>
</mxfile>
